<?xml version="1.0" standalone="no"?>
<!DOCTYPE svg PUBLIC "-//W3C//DTD SVG 20010904//EN"
 "http://www.w3.org/TR/2001/REC-SVG-20010904/DTD/svg10.dtd">
<svg version="1.0" xmlns="http://www.w3.org/2000/svg"
 width="1920.000000pt" height="1920.000000pt" viewBox="0 0 1920.000000 1920.000000"
 preserveAspectRatio="xMidYMid meet">
<metadata>
Created by potrace 1.14, written by Peter Selinger 2001-2017
</metadata>
<g transform="translate(0.000000,1920.000000) scale(0.100000,-0.100000)"
fill="#000000" stroke="none">
<path d="M2895 19189 c-377 -32 -771 -146 -1125 -324 -143 -72 -141 -71 -266
-148 -401 -249 -772 -620 -1021 -1021 -77 -125 -76 -123 -148 -266 -155 -309
-243 -586 -307 -970 l-23 -135 0 -6715 c0 -6369 1 -6721 18 -6830 59 -389 152
-689 309 -1005 190 -382 454 -719 784 -1005 510 -441 1163 -713 1824 -760 99
-8 2252 -10 6760 -8 l6615 3 140 23 c589 97 1067 303 1525 656 135 104 431
400 537 537 349 450 558 938 655 1524 l23 140 3 6615 c2 4508 0 6661 -8 6760
-46 642 -307 1283 -726 1784 -516 615 -1188 994 -1999 1128 l-140 23 -6670 1
c-3669 1 -6710 -2 -6760 -7z m6865 -4259 c221 -11 519 -39 695 -66 948 -146
1752 -514 2275 -1043 426 -431 682 -919 819 -1561 49 -235 70 -422 77 -720 21
-798 -167 -1540 -534 -2109 -392 -608 -1003 -1054 -1817 -1326 -372 -124 -744
-198 -1247 -247 -193 -19 -297 -21 -1100 -25 l-888 -5 0 -1784 0 -1784 -1235
0 -1235 0 0 5340 0 5340 1988 0 c1199 0 2072 -4 2202 -10z"/>
<path d="M8040 11390 l0 -1700 693 0 c380 0 753 5 827 10 341 25 585 83 802
190 138 68 229 132 328 230 278 274 423 637 461 1145 41 557 -104 1029 -412
1342 -222 226 -499 365 -872 438 -197 38 -357 45 -1114 45 l-713 0 0 -1700z"/>
</g>
</svg>
